# xmcd
#
# Track frame offsets: 
#        150
#        12178
#        33112
#        51111
#        66114
#        82403
#        93708
#        117249
#        142101
#        156774
#        172582
#
# Disc length: 2564 seconds
#
# Revision: 0
# Processed by: cddbd v1.5.2PL0 Copyright (c) Steve Scherf et al.
# Submitted via: ExactAudioCopy v0.95b4
#
DISCID=8c0a020b
DTITLE=OBOROH - noci morem
DYEAR=2006
DGENRE=
TTITLE0=Ave, maris stella
TTITLE1=Jako Jonas
TTITLE2=Kone
TTITLE3=Nekdy
TTITLE4=Setkani
TTITLE5=Andel
TTITLE6=This Wheel's On Fire
TTITLE7=Homo Erectus Blues
TTITLE8=Navrat
TTITLE9=Trosecnici
TTITLE10=Tani
EXTD=
EXTT0=
EXTT1=
EXTT2=
EXTT3=
EXTT4=
EXTT5=
EXTT6=
EXTT7=
EXTT8=
EXTT9=
EXTT10=
PLAYORDER=
